<svg xmlns="http://www.w3.org/2000/svg" version="1.1" xmlns:xlink="http://www.w3.org/1999/xlink" width="512" height="512"><svg width="512" height="512" viewBox="0 0 512 512" fill="none" xmlns="http://www.w3.org/2000/svg">
<g clip-path="url(#clip0_1672_57)">
<rect width="512" height="512" rx="256" fill="white"></rect>
<path d="M70.1818 349V162.818H109.545V316.545H189.364V349H70.1818ZM330.432 162.818H369.795V283.727C369.795 297.303 366.553 309.182 360.068 319.364C353.644 329.545 344.644 337.485 333.068 343.182C321.492 348.818 308.008 351.636 292.614 351.636C277.159 351.636 263.644 348.818 252.068 343.182C240.492 337.485 231.492 329.545 225.068 319.364C218.644 309.182 215.432 297.303 215.432 283.727V162.818H254.795V280.364C254.795 287.455 256.341 293.758 259.432 299.273C262.583 304.788 267.008 309.121 272.705 312.273C278.402 315.424 285.038 317 292.614 317C300.25 317 306.886 315.424 312.523 312.273C318.22 309.121 322.614 304.788 325.705 299.273C328.856 293.758 330.432 287.455 330.432 280.364V162.818ZM441.545 162.818V349H402.182V162.818H441.545Z" fill="#2C2A2A"></path>
</g>
<defs>
<clipPath id="SvgjsClipPath1006">
<rect width="512" height="512" rx="256" fill="white"></rect>
</clipPath>
</defs>
</svg><style>@media (prefers-color-scheme: light) { :root { filter: none; } }
@media (prefers-color-scheme: dark) { :root { filter: none; } }
</style></svg>