<svg width="158" height="39" viewBox="0 0 158 39" fill="none" xmlns="http://www.w3.org/2000/svg">
<g clip-path="url(#clip0_1723_136)">
<path d="M0.869385 30V0.909058H6.13927V25.5824H18.9518V30H0.869385ZM27.1768 30.4403C25.7942 30.4403 24.549 30.1941 23.441 29.7017C22.3425 29.1998 21.4713 28.4612 20.8274 27.4858C20.1929 26.5104 19.8757 25.3078 19.8757 23.8778C19.8757 22.6468 20.1029 21.6288 20.5575 20.8239C21.012 20.0189 21.6323 19.375 22.4183 18.892C23.2043 18.4091 24.0897 18.0445 25.0745 17.7983C26.0689 17.5426 27.0963 17.358 28.1569 17.2443C29.4353 17.1117 30.4723 16.9934 31.2677 16.8892C32.0632 16.7756 32.6408 16.6051 33.0007 16.3778C33.37 16.1411 33.5546 15.7765 33.5546 15.2841V15.1989C33.5546 14.1288 33.2374 13.3002 32.6029 12.7131C31.9685 12.1259 31.0546 11.8324 29.8615 11.8324C28.602 11.8324 27.6029 12.107 26.8643 12.6562C26.1351 13.2055 25.6427 13.8542 25.387 14.6023L20.5859 13.9205C20.9647 12.5947 21.5897 11.4867 22.4609 10.5966C23.3321 9.69694 24.3974 9.02459 25.6569 8.57952C26.9164 8.12497 28.3084 7.8977 29.8331 7.8977C30.8842 7.8977 31.9306 8.0208 32.9723 8.26702C34.0139 8.51323 34.9656 8.92042 35.8274 9.48861C36.6891 10.0473 37.3804 10.8097 37.9012 11.7756C38.4315 12.7415 38.6967 13.9489 38.6967 15.3977V30H33.7535V27.0028H33.5831C33.2706 27.6089 32.8302 28.1771 32.262 28.7074C31.7033 29.2282 30.9978 29.6496 30.1456 29.9716C29.3028 30.2841 28.3132 30.4403 27.1768 30.4403ZM28.512 26.6619C29.5442 26.6619 30.4391 26.4583 31.1967 26.0511C31.9543 25.6345 32.5367 25.0852 32.9439 24.4034C33.3605 23.7216 33.5689 22.9782 33.5689 22.1733V19.6023C33.4079 19.7348 33.1332 19.858 32.745 19.9716C32.3662 20.0852 31.9401 20.1847 31.4666 20.2699C30.9931 20.3551 30.5243 20.4309 30.0603 20.4972C29.5963 20.5634 29.1939 20.6203 28.8529 20.6676C28.0859 20.7718 27.3993 20.9422 26.7933 21.179C26.1872 21.4157 25.709 21.7472 25.3586 22.1733C25.0082 22.59 24.8331 23.1297 24.8331 23.7926C24.8331 24.7396 25.1787 25.4545 25.87 25.9375C26.5613 26.4205 27.442 26.6619 28.512 26.6619ZM43.8819 38.1818C43.1812 38.1818 42.5325 38.125 41.9359 38.0114C41.3488 37.9072 40.88 37.7841 40.5296 37.642L41.7228 33.6364C42.4709 33.8542 43.1385 33.9583 43.7257 33.9489C44.3128 33.9394 44.8289 33.7547 45.274 33.3949C45.7285 33.0445 46.112 32.4574 46.4245 31.6335L46.8649 30.4545L38.9529 8.18179H44.4075L49.4359 24.6591H49.6632L54.7058 8.18179H60.1745L51.4387 32.642C51.0315 33.7973 50.4918 34.7869 49.8194 35.6108C49.1471 36.4441 48.3232 37.0786 47.3478 37.5142C46.3819 37.9593 45.2266 38.1818 43.8819 38.1818ZM70.1076 30.4261C67.9769 30.4261 66.1304 29.9574 64.5679 29.0199C63.0054 28.0824 61.7932 26.7708 60.9315 25.0852C60.0792 23.3996 59.6531 21.4299 59.6531 19.1761C59.6531 16.9223 60.0792 14.9479 60.9315 13.2528C61.7932 11.5578 63.0054 10.2415 64.5679 9.30395C66.1304 8.36645 67.9769 7.8977 70.1076 7.8977C72.2383 7.8977 74.0849 8.36645 75.6474 9.30395C77.2099 10.2415 78.4173 11.5578 79.2696 13.2528C80.1313 14.9479 80.5622 16.9223 80.5622 19.1761C80.5622 21.4299 80.1313 23.3996 79.2696 25.0852C78.4173 26.7708 77.2099 28.0824 75.6474 29.0199C74.0849 29.9574 72.2383 30.4261 70.1076 30.4261ZM70.136 26.3068C71.2913 26.3068 72.2572 25.9896 73.0338 25.3551C73.8103 24.7112 74.3879 23.8494 74.7667 22.7699C75.155 21.6903 75.3491 20.4877 75.3491 19.1619C75.3491 17.8267 75.155 16.6193 74.7667 15.5398C74.3879 14.4508 73.8103 13.5843 73.0338 12.9403C72.2572 12.2964 71.2913 11.9744 70.136 11.9744C68.9523 11.9744 67.9675 12.2964 67.1815 12.9403C66.405 13.5843 65.8226 14.4508 65.4343 15.5398C65.0555 16.6193 64.8662 17.8267 64.8662 19.1619C64.8662 20.4877 65.0555 21.6903 65.4343 22.7699C65.8226 23.8494 66.405 24.7112 67.1815 25.3551C67.9675 25.9896 68.9523 26.3068 70.136 26.3068ZM96.4328 20.8239V8.18179H101.575V30H96.589V26.1222H96.3618C95.8693 27.3437 95.0597 28.3428 93.9328 29.1193C92.8153 29.8958 91.4375 30.2841 89.7992 30.2841C88.3693 30.2841 87.1051 29.9669 86.0066 29.3324C84.9176 28.6884 84.0653 27.7557 83.4498 26.5341C82.8343 25.303 82.5265 23.8163 82.5265 22.0739V8.18179H87.6686V21.2784C87.6686 22.661 88.0474 23.7595 88.8049 24.5739C89.5625 25.3883 90.5568 25.7955 91.7879 25.7955C92.5455 25.7955 93.2794 25.6108 93.9896 25.2415C94.6998 24.8722 95.2822 24.3229 95.7368 23.5938C96.2008 22.8551 96.4328 21.9318 96.4328 20.8239ZM115.357 8.18179V12.1591H102.815V8.18179H115.357ZM105.911 2.95452H111.053V23.4375C111.053 24.1288 111.157 24.6591 111.366 25.0284C111.584 25.3883 111.868 25.6345 112.218 25.767C112.568 25.8996 112.957 25.9659 113.383 25.9659C113.705 25.9659 113.998 25.9422 114.263 25.8949C114.538 25.8475 114.746 25.8049 114.888 25.767L115.755 29.7869C115.48 29.8816 115.087 29.9858 114.576 30.0994C114.074 30.2131 113.459 30.2794 112.729 30.2983C111.442 30.3362 110.281 30.142 109.249 29.7159C108.217 29.2803 107.398 28.608 106.792 27.6989C106.195 26.7898 105.902 25.6534 105.911 24.2898V2.95452ZM143.345 0.909058H148.615V19.9148C148.615 21.9981 148.122 23.8305 147.137 25.4119C146.162 26.9934 144.789 28.2292 143.018 29.1193C141.247 30 139.178 30.4403 136.811 30.4403C134.434 30.4403 132.36 30 130.589 29.1193C128.818 28.2292 127.445 26.9934 126.47 25.4119C125.495 23.8305 125.007 21.9981 125.007 19.9148V0.909058H130.277V19.4744C130.277 20.6866 130.542 21.7661 131.072 22.7131C131.612 23.66 132.37 24.4034 133.345 24.9432C134.32 25.4735 135.476 25.7386 136.811 25.7386C138.146 25.7386 139.301 25.4735 140.277 24.9432C141.262 24.4034 142.019 23.66 142.549 22.7131C143.08 21.7661 143.345 20.6866 143.345 19.4744V0.909058ZM157.213 0.909058V30H151.943V0.909058H157.213Z" fill="black" fill-opacity="0.95"/>
</g>
<defs>
<clipPath id="clip0_1723_136">
<rect width="158" height="39" fill="white"/>
</clipPath>
</defs>
</svg>
