<svg width="158" height="39" viewBox="0 0 158 39" fill="none" xmlns="http://www.w3.org/2000/svg">
<path d="M0.869318 30V0.90909H6.1392V25.5824H18.9517V30H0.869318ZM27.1767 30.4403C25.7941 30.4403 24.5489 30.1941 23.4409 29.7017C22.3424 29.1998 21.4712 28.4612 20.8273 27.4858C20.1928 26.5104 19.8756 25.3078 19.8756 23.8778C19.8756 22.6468 20.1028 21.6288 20.5574 20.8239C21.0119 20.0189 21.6322 19.375 22.4182 18.892C23.2042 18.4091 24.0896 18.0445 25.0744 17.7983C26.0688 17.5426 27.0962 17.358 28.1568 17.2443C29.4352 17.1117 30.4722 16.9934 31.2676 16.8892C32.0631 16.7756 32.6407 16.6051 33.0006 16.3778C33.3699 16.1411 33.5545 15.7765 33.5545 15.2841V15.1989C33.5545 14.1288 33.2373 13.3002 32.6028 12.7131C31.9684 12.1259 31.0545 11.8324 29.8614 11.8324C28.6019 11.8324 27.6028 12.107 26.8642 12.6562C26.135 13.2055 25.6426 13.8542 25.3869 14.6023L20.5858 13.9205C20.9646 12.5947 21.5896 11.4867 22.4608 10.5966C23.332 9.69697 24.3973 9.02462 25.6568 8.57955C26.9163 8.125 28.3083 7.89773 29.833 7.89773C30.8841 7.89773 31.9305 8.02083 32.9722 8.26705C34.0138 8.51326 34.9655 8.92045 35.8273 9.48864C36.689 10.0473 37.3803 10.8097 37.9011 11.7756C38.4314 12.7415 38.6966 13.9489 38.6966 15.3977V30H33.7534V27.0028H33.583C33.2705 27.6089 32.8301 28.1771 32.2619 28.7074C31.7032 29.2282 30.9977 29.6496 30.1455 29.9716C29.3027 30.2841 28.3131 30.4403 27.1767 30.4403ZM28.5119 26.6619C29.5441 26.6619 30.439 26.4583 31.1966 26.0511C31.9542 25.6345 32.5366 25.0852 32.9438 24.4034C33.3604 23.7216 33.5688 22.9782 33.5688 22.1733V19.6023C33.4078 19.7348 33.1331 19.858 32.7449 19.9716C32.3661 20.0852 31.94 20.1847 31.4665 20.2699C30.993 20.3551 30.5242 20.4309 30.0602 20.4972C29.5962 20.5634 29.1938 20.6203 28.8528 20.6676C28.0858 20.7718 27.3992 20.9422 26.7932 21.179C26.1871 21.4157 25.7089 21.7472 25.3585 22.1733C25.0081 22.59 24.833 23.1297 24.833 23.7926C24.833 24.7396 25.1786 25.4545 25.8699 25.9375C26.5612 26.4205 27.4419 26.6619 28.5119 26.6619ZM43.8818 38.1818C43.1811 38.1818 42.5324 38.125 41.9358 38.0114C41.3487 37.9072 40.8799 37.7841 40.5295 37.642L41.7227 33.6364C42.4708 33.8542 43.1384 33.9583 43.7256 33.9489C44.3127 33.9394 44.8288 33.7547 45.2739 33.3949C45.7284 33.0445 46.1119 32.4574 46.4244 31.6335L46.8648 30.4545L38.9528 8.18182H44.4074L49.4358 24.6591H49.6631L54.7057 8.18182H60.1744L51.4386 32.642C51.0314 33.7973 50.4917 34.7869 49.8193 35.6108C49.147 36.4441 48.3231 37.0786 47.3477 37.5142C46.3818 37.9593 45.2265 38.1818 43.8818 38.1818ZM70.1075 30.4261C67.9768 30.4261 66.1303 29.9574 64.5678 29.0199C63.0053 28.0824 61.7931 26.7708 60.9314 25.0852C60.0791 23.3996 59.653 21.4299 59.653 19.1761C59.653 16.9223 60.0791 14.9479 60.9314 13.2528C61.7931 11.5578 63.0053 10.2415 64.5678 9.30398C66.1303 8.36648 67.9768 7.89773 70.1075 7.89773C72.2382 7.89773 74.0848 8.36648 75.6473 9.30398C77.2098 10.2415 78.4172 11.5578 79.2695 13.2528C80.1312 14.9479 80.5621 16.9223 80.5621 19.1761C80.5621 21.4299 80.1312 23.3996 79.2695 25.0852C78.4172 26.7708 77.2098 28.0824 75.6473 29.0199C74.0848 29.9574 72.2382 30.4261 70.1075 30.4261ZM70.1359 26.3068C71.2912 26.3068 72.2571 25.9896 73.0337 25.3551C73.8102 24.7112 74.3878 23.8494 74.7666 22.7699C75.1549 21.6903 75.349 20.4877 75.349 19.1619C75.349 17.8267 75.1549 16.6193 74.7666 15.5398C74.3878 14.4508 73.8102 13.5843 73.0337 12.9403C72.2571 12.2964 71.2912 11.9744 70.1359 11.9744C68.9522 11.9744 67.9674 12.2964 67.1814 12.9403C66.4049 13.5843 65.8225 14.4508 65.4342 15.5398C65.0554 16.6193 64.8661 17.8267 64.8661 19.1619C64.8661 20.4877 65.0554 21.6903 65.4342 22.7699C65.8225 23.8494 66.4049 24.7112 67.1814 25.3551C67.9674 25.9896 68.9522 26.3068 70.1359 26.3068ZM96.4327 20.8239V8.18182H101.575V30H96.5889V26.1222H96.3617C95.8692 27.3437 95.0596 28.3428 93.9327 29.1193C92.8152 29.8958 91.4374 30.2841 89.7991 30.2841C88.3692 30.2841 87.105 29.9669 86.0065 29.3324C84.9175 28.6884 84.0652 27.7557 83.4497 26.5341C82.8342 25.303 82.5264 23.8163 82.5264 22.0739V8.18182H87.6685V21.2784C87.6685 22.661 88.0473 23.7595 88.8048 24.5739C89.5624 25.3883 90.5567 25.7955 91.7878 25.7955C92.5454 25.7955 93.2793 25.6108 93.9895 25.2415C94.6997 24.8722 95.2821 24.3229 95.7367 23.5938C96.2007 22.8551 96.4327 21.9318 96.4327 20.8239ZM115.357 8.18182V12.1591H102.815V8.18182H115.357ZM105.911 2.95455H111.053V23.4375C111.053 24.1288 111.157 24.6591 111.366 25.0284C111.584 25.3883 111.868 25.6345 112.218 25.767C112.568 25.8996 112.957 25.9659 113.383 25.9659C113.705 25.9659 113.998 25.9422 114.263 25.8949C114.538 25.8475 114.746 25.8049 114.888 25.767L115.755 29.7869C115.48 29.8816 115.087 29.9858 114.576 30.0994C114.074 30.2131 113.459 30.2794 112.729 30.2983C111.442 30.3362 110.281 30.142 109.249 29.7159C108.217 29.2803 107.398 28.608 106.792 27.6989C106.195 26.7898 105.902 25.6534 105.911 24.2898V2.95455ZM143.345 0.90909H148.615V19.9148C148.615 21.9981 148.122 23.8305 147.137 25.4119C146.162 26.9934 144.789 28.2292 143.018 29.1193C141.247 30 139.178 30.4403 136.811 30.4403C134.434 30.4403 132.36 30 130.589 29.1193C128.818 28.2292 127.445 26.9934 126.47 25.4119C125.495 23.8305 125.007 21.9981 125.007 19.9148V0.90909H130.277V19.4744C130.277 20.6866 130.542 21.7661 131.072 22.7131C131.612 23.66 132.37 24.4034 133.345 24.9432C134.32 25.4735 135.476 25.7386 136.811 25.7386C138.146 25.7386 139.301 25.4735 140.277 24.9432C141.262 24.4034 142.019 23.66 142.549 22.7131C143.08 21.7661 143.345 20.6866 143.345 19.4744V0.90909ZM157.213 0.90909V30H151.943V0.90909H157.213Z" fill="white" fill-opacity="0.95"/>
</svg>
